<svg xmlns="http://www.w3.org/2000/svg" xmlns:xlink="http://www.w3.org/1999/xlink" version="1.1" width="256" height="256" viewBox="0 0 100 100">

		<defs>
			<linearGradient id="Gradient_2" gradientUnits="userSpaceOnUse" x1="50" y1="100" x2="50" y2="0" spreadMethod="pad">
<stop offset="0%" stop-color="#6C3483"/>

<stop offset="100%" stop-color="#9B59B6"/>
</linearGradient><linearGradient id="Gradient_3" gradientUnits="userSpaceOnUse" x1="50" y1="43" x2="50" y2="0" spreadMethod="pad">
<stop offset="0%" stop-color="#FFFFFF" stop-opacity="0.1"/>

<stop offset="100%" stop-color="#FFFFFF" stop-opacity="0.7"/>
</linearGradient><linearGradient id="Gradient_4" gradientUnits="userSpaceOnUse" x1="95" y1="38" x2="7" y2="38" spreadMethod="pad">
<stop offset="0%" stop-color="#FFFFFF" stop-opacity="0.1"/>

<stop offset="100%" stop-color="#FFFFFF" stop-opacity="0.7"/>
</linearGradient><linearGradient id="Gradient_5" gradientUnits="userSpaceOnUse" x1="5" y1="38" x2="94" y2="38" spreadMethod="pad">
<stop offset="0%" stop-color="#FFFFFF" stop-opacity="0.1"/>

<stop offset="100%" stop-color="#FFFFFF" stop-opacity="0.7"/>
</linearGradient><g id="background">
<path fill="url(#background-gradient)" stroke="none" d=" M 93.5 25 Q 92.4 23.15 90.9 22.25 L 53.7 0.85 Q 52.15 0 50 0 47.85 0 46.35 0.85 L 9.15 22.25 Q 7.6 23.15 6.55 25 5.45 26.9 5.45 28.6 L 5.45 71.4 Q 5.45 73.15 6.55 75 7.6 76.85 9.15 77.75 L 46.35 99.1 Q 47.85 100 50 100 52.15 100 53.7 99.1 L 90.9 77.75 Q 92.4 76.85 93.5 75 94.55 73.15 94.55 71.4 L 94.55 28.6 Q 94.55 26.85 93.5 25 M 89.95 27.05 L 89.95 72.95 50 95.95 10.05 72.95 10.05 27.05 50 4.05 89.95 27.05 Z"/>

<path fill="url(#Gradient_2)" stroke="none" d=" M 83.4 69.2 L 83.4 30.8 50 11.6 16.65 30.8 16.65 69.2 50 88.4 83.4 69.2 Z"/>
</g><mask id="mask">
<path fill="#FFFFFF" stroke="none" d=" M 83.4 69.2 L 83.4 30.8 50 11.6 16.65 30.8 16.65 69.2 50 88.4 83.4 69.2 Z"/>
</mask><g id="Layer2_0_FILL">
<path fill="url(#Gradient_3)" stroke="none" d=" M 92.95 24.2 Q 91.95 22.9 90.9 22.25 L 53.7 0.85 Q 52.15 0 50 0 47.85 0 46.35 0.85 L 9.15 22.25 Q 8.1 22.9 7.05 24.2 14.4 32.95 25.45 37.95 36.9 43.05 50 43.05 63.05 43.05 74.55 37.95 85.7 32.95 92.95 24.2 Z"/>
</g><g id="Layer1_0_FILL">
<path fill="url(#Gradient_4)" stroke="none" d=" M 93.5 25 Q 92.4 23.15 90.9 22.25 L 53.7 0.85 Q 52.15 0 50 0 47.85 0 46.35 0.85 L 9.15 22.25 Q 7.65 23.15 6.6 24.9 L 93.4 75.15 Q 94.55 73.2 94.55 71.4 L 94.55 28.6 Q 94.55 26.85 93.5 25 Z"/>
</g><g id="Layer0_0_FILL">
<path fill="url(#Gradient_5)" stroke="none" d=" M 93.55 25.1 Q 92.45 23.15 90.9 22.25 L 53.7 0.85 Q 52.15 0 50 0 47.85 0 46.35 0.85 L 9.15 22.25 Q 7.6 23.15 6.55 25 5.45 26.9 5.45 28.6 L 5.45 71.4 Q 5.45 73.25 6.7 75.15 L 93.55 25.1 Z"/>
</g>
			
	<linearGradient id="background-gradient" x1="0" y1="0" y2="1" x2="0">
		<stop stop-color="#6C3483" offset="0%"/>
		<stop stop-color="#9B59B6" offset="100%"/>
	</linearGradient>

			
			
			<g transform="scale(1.1111111111111112) translate(-5 -4.998498916625977)" id="picture"><path d="M32.28 61.403L50.398 76.45l-.04.034-18.078-15.08zm18.098 11.484L34.016 59.3l16.327 13.618.035-.03zM95 37.377v54.93H5V37.374l9.622-6.307V16.01h22.97l12.692-8.32 12.53 8.32h22.558v14.976L95 37.378zm-9.627 5.944l5.998-5.07-5.99-3.98v9.06zM42.566 16.01h15.318l-7.61-5.052-7.708 5.052zM17.35 45.4l16.666 13.9 16.327 13.618.036-.03 32.26-27.48V18.735H17.35V45.4zm-8.697-7.16l5.97 4.957v-8.87l-5.97 3.913zm83.62 2.81l-41.84 35.43-.034-.03-18.12-15.045-24.56-20.39v48.57h84.55V41.05zM49.797 58.433c-7.066 0-13.057-5.173-13.057-13.447 0-8.878 6.16-16.55 15.73-16.55 7.5 0 12.54 5.258 12.54 12.455 0 6.47-3.62 10.26-7.67 10.26-1.726 0-3.32-1.16-3.19-3.79h-.172c-1.508 2.54-3.492 3.79-6.078 3.79-2.497 0-4.652-2.023-4.652-5.43 0-5.34 4.224-10.21 10.215-10.21 1.85 0 3.49.388 4.61.905l-1.464 7.8c-.65 3.276-.13 4.786 1.29 4.828 2.2.046 4.65-2.886 4.65-7.886 0-6.247-3.75-10.73-10.43-10.73-7.025 0-12.93 5.56-12.93 14.307 0 7.198 4.696 11.637 11.075 11.637 2.457 0 4.74-.516 6.507-1.507l.69 1.853c-2.37 1.25-4.784 1.723-7.673 1.723zm5.3-20.343c-.43-.13-1.163-.303-2.154-.303-3.79 0-6.85 3.576-6.85 7.758 0 1.896.945 3.275 2.844 3.275 2.5 0 4.782-3.188 5.257-5.862l.904-4.87z"/></g>
			
	<linearGradient id="picture-gradient" x1="0" y1="0" y2="1" x2="0">
		<stop stop-color="#ffffff" offset="0%"/>
		<stop stop-color="#ffffff" offset="100%"/>
	</linearGradient>

		</defs>

		

			<use xlink:href="#background" fill="url(#background-gradient)"/>

		

			<g mask="url(#mask)">
				<g transform="             translate(                                 50 50 )                             translate(0 -5)  scale(0.5)                               translate(                                 -50 -50 )">
						<use xlink:href="#picture" fill="url(#picture-gradient)"/>
				</g>
			</g>

		


	</svg>