<?xml version="1.0" standalone="no"?>
<!DOCTYPE svg PUBLIC "-//W3C//DTD SVG 20010904//EN"
 "http://www.w3.org/TR/2001/REC-SVG-20010904/DTD/svg10.dtd">
<svg version="1.0" xmlns="http://www.w3.org/2000/svg"
 width="700.000000pt" height="700.000000pt" viewBox="0 0 700.000000 700.000000"
 preserveAspectRatio="xMidYMid meet">
<metadata>
Created by potrace 1.11, written by Peter Selinger 2001-2013
</metadata>
<g transform="translate(0.000000,700.000000) scale(0.100000,-0.100000)"
fill="#000000" stroke="none">
<path d="M3373 6990 c-24 -5 -62 -17 -85 -28 -51 -23 -2624 -1502 -2686 -1544
-87 -60 -187 -219 -212 -338 -8 -40 -10 -467 -8 -1610 l3 -1555 22 -59 c33
-87 81 -162 143 -225 48 -49 217 -149 1380 -816 729 -417 1351 -770 1383 -783
110 -44 282 -40 397 9 27 12 640 360 1362 774 1203 689 1318 757 1378 816 41
40 79 90 102 135 73 138 68 18 68 1734 0 1716 5 1596 -68 1734 -23 44 -61 95
-102 135 -60 59 -174 127 -1385 823 -725 417 -1344 768 -1375 779 -62 24 -243
35 -317 19z m1524 -1079 l1388 -800 8 -1602 c6 -1295 5 -1605 -5 -1615 -18
-17 -2776 -1604 -2788 -1604 -12 0 -2770 1587 -2788 1604 -10 10 -11 320 -5
1615 l8 1602 1385 799 c762 439 1390 799 1397 799 6 1 636 -359 1400 -798z"/>
<path d="M2330 5517 l-1165 -672 -3 -1341 c-2 -1066 1 -1344 10 -1351 7 -6
534 -310 1171 -677 l1157 -666 1170 673 1170 672 0 1345 0 1345 -1166 670
c-641 369 -1169 671 -1172 672 -4 1 -531 -301 -1172 -670z m1429 -187 l242
-160 435 0 434 0 0 -288 0 -289 190 -126 190 -127 0 -1065 0 -1065 -1750 0
-1750 0 0 1065 0 1064 190 125 190 125 0 291 0 290 443 0 443 0 245 160 c134
88 247 160 250 160 3 0 114 -72 248 -160z"/>
<path d="M3360 5272 l-145 -97 148 -3 c81 -1 213 -1 293 0 l147 3 -147 98
c-80 53 -147 97 -148 96 -2 0 -68 -44 -148 -97z"/>
<path d="M2230 4548 l0 -523 635 -527 c349 -291 640 -529 645 -530 6 -2 292
236 635 527 l624 530 1 523 0 522 -1270 0 -1270 0 0 -522z m1520 115 c113 -31
223 -120 275 -224 94 -183 60 -457 -68 -565 -72 -60 -179 -82 -238 -47 -27 16
-59 75 -59 108 0 9 -26 -11 -58 -44 -62 -63 -102 -81 -182 -81 -137 0 -213
141 -165 305 24 85 48 126 102 180 92 93 239 134 373 106 89 -19 86 -7 51
-191 -48 -251 -41 -320 33 -320 115 0 199 194 167 386 -34 201 -165 320 -366
332 -150 8 -274 -37 -374 -137 -100 -100 -149 -217 -158 -376 -9 -160 32 -281
128 -377 61 -61 131 -94 232 -110 90 -14 200 -1 274 32 l44 19 14 -32 c7 -18
10 -35 6 -40 -16 -17 -129 -49 -200 -57 -75 -8 -188 0 -246 18 -157 49 -288
187 -330 347 -36 139 -11 339 60 473 131 249 413 370 685 295z"/>
<path d="M3567 4319 c-120 -28 -205 -134 -215 -270 -7 -104 28 -152 110 -151
65 1 126 51 173 142 21 41 68 262 57 271 -13 12 -87 17 -125 8z"/>
<path d="M4870 4290 c0 -113 4 -170 11 -170 5 0 56 39 112 87 56 47 105 89
110 93 6 6 -213 160 -228 160 -3 0 -5 -76 -5 -170z"/>
<path d="M1998 4379 l-107 -71 112 -94 c62 -51 115 -94 120 -94 4 0 7 74 7
165 0 125 -3 165 -12 165 -7 0 -61 -32 -120 -71z"/>
<path d="M1850 3250 l0 -940 1650 0 1650 0 0 941 c0 784 -2 940 -13 936 -10
-4 -1359 -1139 -1607 -1353 -13 -11 -58 23 -310 233 -879 733 -1352 1123
-1360 1123 -6 0 -10 -343 -10 -940z"/>
</g>
</svg>
